<mxfile host="app.diagrams.net" agent="Mozilla/5.0 (Windows NT 10.0; Win64; x64) AppleWebKit/537.36 (KHTML, like Gecko) Chrome/129.0.0.0 Safari/537.36 Edg/129.0.0.0" version="24.7.17">
  <diagram id="C5RBs43oDa-KdzZeNtuy" name="Page-1">
    <mxGraphModel dx="3920" dy="3096" grid="1" gridSize="10" guides="1" tooltips="1" connect="1" arrows="1" fold="1" page="1" pageScale="1" pageWidth="827" pageHeight="1169" math="0" shadow="0">
      <root>
        <mxCell id="WIyWlLk6GJQsqaUBKTNV-0" />
        <mxCell id="WIyWlLk6GJQsqaUBKTNV-1" parent="WIyWlLk6GJQsqaUBKTNV-0" />
        <mxCell id="CfoaBqupTmaHTWKBpBK3-28" value="" style="edgeStyle=orthogonalEdgeStyle;rounded=0;orthogonalLoop=1;jettySize=auto;html=1;" edge="1" parent="WIyWlLk6GJQsqaUBKTNV-1" source="CfoaBqupTmaHTWKBpBK3-0" target="CfoaBqupTmaHTWKBpBK3-27">
          <mxGeometry relative="1" as="geometry" />
        </mxCell>
        <mxCell id="CfoaBqupTmaHTWKBpBK3-0" value="Start" style="ellipse;whiteSpace=wrap;html=1;" vertex="1" parent="WIyWlLk6GJQsqaUBKTNV-1">
          <mxGeometry x="170" y="-390" width="100" height="70" as="geometry" />
        </mxCell>
        <mxCell id="CfoaBqupTmaHTWKBpBK3-1" value="End" style="ellipse;whiteSpace=wrap;html=1;" vertex="1" parent="WIyWlLk6GJQsqaUBKTNV-1">
          <mxGeometry x="560" y="1070" width="100" height="70" as="geometry" />
        </mxCell>
        <mxCell id="CfoaBqupTmaHTWKBpBK3-10" value="" style="edgeStyle=orthogonalEdgeStyle;rounded=0;orthogonalLoop=1;jettySize=auto;html=1;" edge="1" parent="WIyWlLk6GJQsqaUBKTNV-1" source="CfoaBqupTmaHTWKBpBK3-2" target="CfoaBqupTmaHTWKBpBK3-9">
          <mxGeometry relative="1" as="geometry" />
        </mxCell>
        <mxCell id="CfoaBqupTmaHTWKBpBK3-2" value="&quot;Masukkan Username (tanpa kapital)&quot;&lt;div&gt;GET username&lt;/div&gt;" style="shape=parallelogram;perimeter=parallelogramPerimeter;fixedSize=1;whiteSpace=wrap;html=1;" vertex="1" parent="WIyWlLk6GJQsqaUBKTNV-1">
          <mxGeometry x="130" y="150" width="180" height="60" as="geometry" />
        </mxCell>
        <mxCell id="CfoaBqupTmaHTWKBpBK3-20" value="" style="edgeStyle=orthogonalEdgeStyle;rounded=0;orthogonalLoop=1;jettySize=auto;html=1;" edge="1" parent="WIyWlLk6GJQsqaUBKTNV-1" source="CfoaBqupTmaHTWKBpBK3-9" target="CfoaBqupTmaHTWKBpBK3-19">
          <mxGeometry relative="1" as="geometry" />
        </mxCell>
        <mxCell id="CfoaBqupTmaHTWKBpBK3-9" value="&quot;Masukkan Password (tidak perlu masukkan angka 0 di awal) :&quot;&lt;div&gt;Get password&lt;/div&gt;" style="shape=parallelogram;perimeter=parallelogramPerimeter;fixedSize=1;whiteSpace=wrap;html=1;" vertex="1" parent="WIyWlLk6GJQsqaUBKTNV-1">
          <mxGeometry x="130" y="290" width="180" height="60" as="geometry" />
        </mxCell>
        <mxCell id="CfoaBqupTmaHTWKBpBK3-12" value="Loop" style="ellipse;whiteSpace=wrap;html=1;" vertex="1" parent="WIyWlLk6GJQsqaUBKTNV-1">
          <mxGeometry x="170" y="-155" width="100" height="70" as="geometry" />
        </mxCell>
        <mxCell id="CfoaBqupTmaHTWKBpBK3-33" value="" style="edgeStyle=orthogonalEdgeStyle;rounded=0;orthogonalLoop=1;jettySize=auto;html=1;" edge="1" parent="WIyWlLk6GJQsqaUBKTNV-1" source="CfoaBqupTmaHTWKBpBK3-19" target="CfoaBqupTmaHTWKBpBK3-32">
          <mxGeometry relative="1" as="geometry" />
        </mxCell>
        <mxCell id="CfoaBqupTmaHTWKBpBK3-35" value="" style="edgeStyle=orthogonalEdgeStyle;rounded=0;orthogonalLoop=1;jettySize=auto;html=1;" edge="1" parent="WIyWlLk6GJQsqaUBKTNV-1" source="CfoaBqupTmaHTWKBpBK3-19" target="CfoaBqupTmaHTWKBpBK3-26">
          <mxGeometry relative="1" as="geometry" />
        </mxCell>
        <mxCell id="CfoaBqupTmaHTWKBpBK3-19" value="username = &quot;dwi&quot; and password = &quot;28&quot;" style="rhombus;whiteSpace=wrap;html=1;" vertex="1" parent="WIyWlLk6GJQsqaUBKTNV-1">
          <mxGeometry x="150" y="420" width="140" height="80" as="geometry" />
        </mxCell>
        <mxCell id="CfoaBqupTmaHTWKBpBK3-60" value="" style="edgeStyle=orthogonalEdgeStyle;rounded=0;orthogonalLoop=1;jettySize=auto;html=1;" edge="1" parent="WIyWlLk6GJQsqaUBKTNV-1" source="CfoaBqupTmaHTWKBpBK3-26" target="CfoaBqupTmaHTWKBpBK3-59">
          <mxGeometry relative="1" as="geometry" />
        </mxCell>
        <mxCell id="CfoaBqupTmaHTWKBpBK3-26" value="i&amp;nbsp; -= 1" style="rounded=0;whiteSpace=wrap;html=1;" vertex="1" parent="WIyWlLk6GJQsqaUBKTNV-1">
          <mxGeometry x="354" y="290" width="120" height="60" as="geometry" />
        </mxCell>
        <mxCell id="CfoaBqupTmaHTWKBpBK3-99" value="" style="edgeStyle=orthogonalEdgeStyle;rounded=0;orthogonalLoop=1;jettySize=auto;html=1;" edge="1" parent="WIyWlLk6GJQsqaUBKTNV-1" source="CfoaBqupTmaHTWKBpBK3-27" target="CfoaBqupTmaHTWKBpBK3-12">
          <mxGeometry relative="1" as="geometry" />
        </mxCell>
        <mxCell id="CfoaBqupTmaHTWKBpBK3-27" value="i = 3&lt;div&gt;ulang = True&lt;/div&gt;" style="rounded=0;whiteSpace=wrap;html=1;" vertex="1" parent="WIyWlLk6GJQsqaUBKTNV-1">
          <mxGeometry x="160" y="-270" width="120" height="60" as="geometry" />
        </mxCell>
        <mxCell id="CfoaBqupTmaHTWKBpBK3-29" value="No" style="text;html=1;align=center;verticalAlign=middle;whiteSpace=wrap;rounded=0;" vertex="1" parent="WIyWlLk6GJQsqaUBKTNV-1">
          <mxGeometry x="310" y="430" width="60" height="30" as="geometry" />
        </mxCell>
        <mxCell id="CfoaBqupTmaHTWKBpBK3-68" value="" style="edgeStyle=orthogonalEdgeStyle;rounded=0;orthogonalLoop=1;jettySize=auto;html=1;" edge="1" parent="WIyWlLk6GJQsqaUBKTNV-1" source="CfoaBqupTmaHTWKBpBK3-30" target="CfoaBqupTmaHTWKBpBK3-67">
          <mxGeometry relative="1" as="geometry" />
        </mxCell>
        <mxCell id="CfoaBqupTmaHTWKBpBK3-30" value="&quot;Masukkan nama peminjam&quot;&lt;div&gt;GET nama&lt;/div&gt;" style="shape=parallelogram;perimeter=parallelogramPerimeter;whiteSpace=wrap;html=1;fixedSize=1;" vertex="1" parent="WIyWlLk6GJQsqaUBKTNV-1">
          <mxGeometry x="-60" y="585" width="120" height="60" as="geometry" />
        </mxCell>
        <mxCell id="CfoaBqupTmaHTWKBpBK3-34" value="" style="edgeStyle=orthogonalEdgeStyle;rounded=0;orthogonalLoop=1;jettySize=auto;html=1;" edge="1" parent="WIyWlLk6GJQsqaUBKTNV-1" source="CfoaBqupTmaHTWKBpBK3-32" target="CfoaBqupTmaHTWKBpBK3-30">
          <mxGeometry relative="1" as="geometry" />
        </mxCell>
        <mxCell id="CfoaBqupTmaHTWKBpBK3-32" value="print(&quot;Login Berhasil!&quot;)" style="whiteSpace=wrap;html=1;" vertex="1" parent="WIyWlLk6GJQsqaUBKTNV-1">
          <mxGeometry x="160" y="585" width="120" height="60" as="geometry" />
        </mxCell>
        <mxCell id="CfoaBqupTmaHTWKBpBK3-37" value="Yes" style="text;html=1;align=center;verticalAlign=middle;whiteSpace=wrap;rounded=0;" vertex="1" parent="WIyWlLk6GJQsqaUBKTNV-1">
          <mxGeometry x="210" y="530" width="60" height="30" as="geometry" />
        </mxCell>
        <mxCell id="CfoaBqupTmaHTWKBpBK3-39" value="" style="edgeStyle=orthogonalEdgeStyle;rounded=0;orthogonalLoop=1;jettySize=auto;html=1;" edge="1" parent="WIyWlLk6GJQsqaUBKTNV-1" source="CfoaBqupTmaHTWKBpBK3-12" target="CfoaBqupTmaHTWKBpBK3-38">
          <mxGeometry relative="1" as="geometry">
            <mxPoint x="220" y="-85" as="sourcePoint" />
            <mxPoint x="220" y="150" as="targetPoint" />
          </mxGeometry>
        </mxCell>
        <mxCell id="CfoaBqupTmaHTWKBpBK3-40" value="" style="edgeStyle=orthogonalEdgeStyle;rounded=0;orthogonalLoop=1;jettySize=auto;html=1;" edge="1" parent="WIyWlLk6GJQsqaUBKTNV-1" source="CfoaBqupTmaHTWKBpBK3-38" target="CfoaBqupTmaHTWKBpBK3-2">
          <mxGeometry relative="1" as="geometry" />
        </mxCell>
        <mxCell id="CfoaBqupTmaHTWKBpBK3-109" value="" style="edgeStyle=orthogonalEdgeStyle;rounded=0;orthogonalLoop=1;jettySize=auto;html=1;" edge="1" parent="WIyWlLk6GJQsqaUBKTNV-1" source="CfoaBqupTmaHTWKBpBK3-38" target="CfoaBqupTmaHTWKBpBK3-51">
          <mxGeometry relative="1" as="geometry" />
        </mxCell>
        <mxCell id="CfoaBqupTmaHTWKBpBK3-38" value="i &amp;gt; 0" style="rhombus;whiteSpace=wrap;html=1;" vertex="1" parent="WIyWlLk6GJQsqaUBKTNV-1">
          <mxGeometry x="180" y="-40" width="80" height="80" as="geometry" />
        </mxCell>
        <mxCell id="CfoaBqupTmaHTWKBpBK3-41" value="Yes" style="text;html=1;align=center;verticalAlign=middle;whiteSpace=wrap;rounded=0;" vertex="1" parent="WIyWlLk6GJQsqaUBKTNV-1">
          <mxGeometry x="210" y="70" width="60" height="30" as="geometry" />
        </mxCell>
        <mxCell id="CfoaBqupTmaHTWKBpBK3-46" value="No" style="text;html=1;align=center;verticalAlign=middle;whiteSpace=wrap;rounded=0;" vertex="1" parent="WIyWlLk6GJQsqaUBKTNV-1">
          <mxGeometry x="110" y="-30" width="60" height="30" as="geometry" />
        </mxCell>
        <mxCell id="CfoaBqupTmaHTWKBpBK3-53" value="" style="edgeStyle=orthogonalEdgeStyle;rounded=0;orthogonalLoop=1;jettySize=auto;html=1;" edge="1" parent="WIyWlLk6GJQsqaUBKTNV-1" source="CfoaBqupTmaHTWKBpBK3-51" target="CfoaBqupTmaHTWKBpBK3-52">
          <mxGeometry relative="1" as="geometry" />
        </mxCell>
        <mxCell id="CfoaBqupTmaHTWKBpBK3-51" value="PUT&quot;Percobaan login telah Habis!&quot;" style="shape=parallelogram;perimeter=parallelogramPerimeter;whiteSpace=wrap;html=1;fixedSize=1;" vertex="1" parent="WIyWlLk6GJQsqaUBKTNV-1">
          <mxGeometry x="-50" y="-30" width="120" height="60" as="geometry" />
        </mxCell>
        <mxCell id="CfoaBqupTmaHTWKBpBK3-52" value="End" style="strokeWidth=2;html=1;shape=mxgraph.flowchart.start_1;whiteSpace=wrap;" vertex="1" parent="WIyWlLk6GJQsqaUBKTNV-1">
          <mxGeometry x="-210" y="-30" width="100" height="60" as="geometry" />
        </mxCell>
        <mxCell id="CfoaBqupTmaHTWKBpBK3-65" value="" style="edgeStyle=orthogonalEdgeStyle;rounded=0;orthogonalLoop=1;jettySize=auto;html=1;" edge="1" parent="WIyWlLk6GJQsqaUBKTNV-1" source="CfoaBqupTmaHTWKBpBK3-59" target="CfoaBqupTmaHTWKBpBK3-64">
          <mxGeometry relative="1" as="geometry" />
        </mxCell>
        <mxCell id="CfoaBqupTmaHTWKBpBK3-59" value="PUT&quot;Percobaan Login Gagal!&quot;" style="shape=parallelogram;perimeter=parallelogramPerimeter;whiteSpace=wrap;html=1;fixedSize=1;" vertex="1" parent="WIyWlLk6GJQsqaUBKTNV-1">
          <mxGeometry x="354" y="150" width="120" height="60" as="geometry" />
        </mxCell>
        <mxCell id="CfoaBqupTmaHTWKBpBK3-100" value="" style="edgeStyle=orthogonalEdgeStyle;rounded=0;orthogonalLoop=1;jettySize=auto;html=1;" edge="1" parent="WIyWlLk6GJQsqaUBKTNV-1" source="CfoaBqupTmaHTWKBpBK3-64" target="CfoaBqupTmaHTWKBpBK3-12">
          <mxGeometry relative="1" as="geometry" />
        </mxCell>
        <mxCell id="CfoaBqupTmaHTWKBpBK3-64" value="PUT&quot;Sisa percobaan :&quot; + i" style="shape=parallelogram;perimeter=parallelogramPerimeter;whiteSpace=wrap;html=1;fixedSize=1;" vertex="1" parent="WIyWlLk6GJQsqaUBKTNV-1">
          <mxGeometry x="354" y="-150" width="120" height="60" as="geometry" />
        </mxCell>
        <mxCell id="CfoaBqupTmaHTWKBpBK3-70" value="" style="edgeStyle=orthogonalEdgeStyle;rounded=0;orthogonalLoop=1;jettySize=auto;html=1;" edge="1" parent="WIyWlLk6GJQsqaUBKTNV-1" source="CfoaBqupTmaHTWKBpBK3-67" target="CfoaBqupTmaHTWKBpBK3-69">
          <mxGeometry relative="1" as="geometry" />
        </mxCell>
        <mxCell id="CfoaBqupTmaHTWKBpBK3-67" value="&quot;Masukkan NIM peminjam&quot;&lt;div&gt;GET nim&lt;/div&gt;" style="shape=parallelogram;perimeter=parallelogramPerimeter;whiteSpace=wrap;html=1;fixedSize=1;" vertex="1" parent="WIyWlLk6GJQsqaUBKTNV-1">
          <mxGeometry x="-60" y="690" width="120" height="60" as="geometry" />
        </mxCell>
        <mxCell id="CfoaBqupTmaHTWKBpBK3-72" value="" style="edgeStyle=orthogonalEdgeStyle;rounded=0;orthogonalLoop=1;jettySize=auto;html=1;" edge="1" parent="WIyWlLk6GJQsqaUBKTNV-1" source="CfoaBqupTmaHTWKBpBK3-69" target="CfoaBqupTmaHTWKBpBK3-71">
          <mxGeometry relative="1" as="geometry" />
        </mxCell>
        <mxCell id="CfoaBqupTmaHTWKBpBK3-69" value="&quot;Masukkan durasi peminjaman (hitungan tahun)&quot;&lt;div&gt;GET durasi&lt;/div&gt;" style="shape=parallelogram;perimeter=parallelogramPerimeter;whiteSpace=wrap;html=1;fixedSize=1;" vertex="1" parent="WIyWlLk6GJQsqaUBKTNV-1">
          <mxGeometry x="-60" y="810" width="120" height="60" as="geometry" />
        </mxCell>
        <mxCell id="CfoaBqupTmaHTWKBpBK3-74" value="" style="edgeStyle=orthogonalEdgeStyle;rounded=0;orthogonalLoop=1;jettySize=auto;html=1;" edge="1" parent="WIyWlLk6GJQsqaUBKTNV-1" source="CfoaBqupTmaHTWKBpBK3-71" target="CfoaBqupTmaHTWKBpBK3-73">
          <mxGeometry relative="1" as="geometry" />
        </mxCell>
        <mxCell id="CfoaBqupTmaHTWKBpBK3-71" value="pinjaman &amp;gt;= 0" style="rhombus;whiteSpace=wrap;html=1;" vertex="1" parent="WIyWlLk6GJQsqaUBKTNV-1">
          <mxGeometry x="180" y="800" width="80" height="80" as="geometry" />
        </mxCell>
        <mxCell id="CfoaBqupTmaHTWKBpBK3-76" value="" style="edgeStyle=orthogonalEdgeStyle;rounded=0;orthogonalLoop=1;jettySize=auto;html=1;" edge="1" parent="WIyWlLk6GJQsqaUBKTNV-1" source="CfoaBqupTmaHTWKBpBK3-73" target="CfoaBqupTmaHTWKBpBK3-75">
          <mxGeometry relative="1" as="geometry" />
        </mxCell>
        <mxCell id="CfoaBqupTmaHTWKBpBK3-86" value="" style="edgeStyle=orthogonalEdgeStyle;rounded=0;orthogonalLoop=1;jettySize=auto;html=1;" edge="1" parent="WIyWlLk6GJQsqaUBKTNV-1" source="CfoaBqupTmaHTWKBpBK3-73" target="CfoaBqupTmaHTWKBpBK3-85">
          <mxGeometry relative="1" as="geometry" />
        </mxCell>
        <mxCell id="CfoaBqupTmaHTWKBpBK3-73" value="durasi = 1" style="rhombus;whiteSpace=wrap;html=1;" vertex="1" parent="WIyWlLk6GJQsqaUBKTNV-1">
          <mxGeometry x="180" y="960" width="80" height="80" as="geometry" />
        </mxCell>
        <mxCell id="CfoaBqupTmaHTWKBpBK3-78" value="" style="edgeStyle=orthogonalEdgeStyle;rounded=0;orthogonalLoop=1;jettySize=auto;html=1;" edge="1" parent="WIyWlLk6GJQsqaUBKTNV-1" source="CfoaBqupTmaHTWKBpBK3-75" target="CfoaBqupTmaHTWKBpBK3-77">
          <mxGeometry relative="1" as="geometry" />
        </mxCell>
        <mxCell id="CfoaBqupTmaHTWKBpBK3-89" value="" style="edgeStyle=orthogonalEdgeStyle;rounded=0;orthogonalLoop=1;jettySize=auto;html=1;" edge="1" parent="WIyWlLk6GJQsqaUBKTNV-1" source="CfoaBqupTmaHTWKBpBK3-75" target="CfoaBqupTmaHTWKBpBK3-87">
          <mxGeometry relative="1" as="geometry" />
        </mxCell>
        <mxCell id="CfoaBqupTmaHTWKBpBK3-75" value="durasi = 2" style="rhombus;whiteSpace=wrap;html=1;" vertex="1" parent="WIyWlLk6GJQsqaUBKTNV-1">
          <mxGeometry x="320" y="960" width="80" height="80" as="geometry" />
        </mxCell>
        <mxCell id="CfoaBqupTmaHTWKBpBK3-80" value="" style="edgeStyle=orthogonalEdgeStyle;rounded=0;orthogonalLoop=1;jettySize=auto;html=1;" edge="1" parent="WIyWlLk6GJQsqaUBKTNV-1" source="CfoaBqupTmaHTWKBpBK3-77" target="CfoaBqupTmaHTWKBpBK3-79">
          <mxGeometry relative="1" as="geometry" />
        </mxCell>
        <mxCell id="CfoaBqupTmaHTWKBpBK3-91" value="" style="edgeStyle=orthogonalEdgeStyle;rounded=0;orthogonalLoop=1;jettySize=auto;html=1;" edge="1" parent="WIyWlLk6GJQsqaUBKTNV-1" source="CfoaBqupTmaHTWKBpBK3-77" target="CfoaBqupTmaHTWKBpBK3-90">
          <mxGeometry relative="1" as="geometry" />
        </mxCell>
        <mxCell id="CfoaBqupTmaHTWKBpBK3-77" value="durasi = 3" style="rhombus;whiteSpace=wrap;html=1;" vertex="1" parent="WIyWlLk6GJQsqaUBKTNV-1">
          <mxGeometry x="460" y="960" width="80" height="80" as="geometry" />
        </mxCell>
        <mxCell id="CfoaBqupTmaHTWKBpBK3-79" value="PUT&quot;Maaf, durasi pinjaman diluar 1 - 3 tahun" style="shape=parallelogram;perimeter=parallelogramPerimeter;whiteSpace=wrap;html=1;fixedSize=1;" vertex="1" parent="WIyWlLk6GJQsqaUBKTNV-1">
          <mxGeometry x="660" y="970" width="170" height="60" as="geometry" />
        </mxCell>
        <mxCell id="CfoaBqupTmaHTWKBpBK3-81" value="No" style="text;html=1;align=center;verticalAlign=middle;whiteSpace=wrap;rounded=0;" vertex="1" parent="WIyWlLk6GJQsqaUBKTNV-1">
          <mxGeometry x="260" y="970" width="60" height="30" as="geometry" />
        </mxCell>
        <mxCell id="CfoaBqupTmaHTWKBpBK3-83" value="No" style="text;html=1;align=center;verticalAlign=middle;whiteSpace=wrap;rounded=0;" vertex="1" parent="WIyWlLk6GJQsqaUBKTNV-1">
          <mxGeometry x="400" y="970" width="60" height="30" as="geometry" />
        </mxCell>
        <mxCell id="CfoaBqupTmaHTWKBpBK3-95" value="" style="edgeStyle=orthogonalEdgeStyle;rounded=0;orthogonalLoop=1;jettySize=auto;html=1;" edge="1" parent="WIyWlLk6GJQsqaUBKTNV-1" source="CfoaBqupTmaHTWKBpBK3-85" target="CfoaBqupTmaHTWKBpBK3-92">
          <mxGeometry relative="1" as="geometry" />
        </mxCell>
        <mxCell id="CfoaBqupTmaHTWKBpBK3-85" value="cicilan = (pinjaman + ((0,07/12)*pinjaman))/ (durasi * 12)" style="whiteSpace=wrap;html=1;" vertex="1" parent="WIyWlLk6GJQsqaUBKTNV-1">
          <mxGeometry x="160" y="1130" width="120" height="60" as="geometry" />
        </mxCell>
        <mxCell id="CfoaBqupTmaHTWKBpBK3-94" value="" style="edgeStyle=orthogonalEdgeStyle;rounded=0;orthogonalLoop=1;jettySize=auto;html=1;" edge="1" parent="WIyWlLk6GJQsqaUBKTNV-1" source="CfoaBqupTmaHTWKBpBK3-87" target="CfoaBqupTmaHTWKBpBK3-92">
          <mxGeometry relative="1" as="geometry" />
        </mxCell>
        <mxCell id="CfoaBqupTmaHTWKBpBK3-87" value="cicilan = (pinjaman + ((0,13/12)*pinjaman))/ (durasi * 12)" style="whiteSpace=wrap;html=1;" vertex="1" parent="WIyWlLk6GJQsqaUBKTNV-1">
          <mxGeometry x="300" y="1130" width="120" height="60" as="geometry" />
        </mxCell>
        <mxCell id="CfoaBqupTmaHTWKBpBK3-96" value="" style="edgeStyle=orthogonalEdgeStyle;rounded=0;orthogonalLoop=1;jettySize=auto;html=1;" edge="1" parent="WIyWlLk6GJQsqaUBKTNV-1" source="CfoaBqupTmaHTWKBpBK3-90" target="CfoaBqupTmaHTWKBpBK3-92">
          <mxGeometry relative="1" as="geometry" />
        </mxCell>
        <mxCell id="CfoaBqupTmaHTWKBpBK3-90" value="cicilan = (pinjaman + ((0,19/12)*pinjaman))/ (durasi * 12)" style="whiteSpace=wrap;html=1;" vertex="1" parent="WIyWlLk6GJQsqaUBKTNV-1">
          <mxGeometry x="440" y="1130" width="120" height="60" as="geometry" />
        </mxCell>
        <mxCell id="CfoaBqupTmaHTWKBpBK3-101" value="" style="edgeStyle=orthogonalEdgeStyle;rounded=0;orthogonalLoop=1;jettySize=auto;html=1;" edge="1" parent="WIyWlLk6GJQsqaUBKTNV-1" source="CfoaBqupTmaHTWKBpBK3-92" target="CfoaBqupTmaHTWKBpBK3-98">
          <mxGeometry relative="1" as="geometry" />
        </mxCell>
        <mxCell id="CfoaBqupTmaHTWKBpBK3-92" value="nama+ &quot; dengan nim &quot;+nim+&quot; meminjam uang sejumlah Rp &quot;+pinjaman+&quot; dengan durasi peminjaman &quot;+durasi+&quot; tahun, maka Cicilan perbulannya adalah Rp &quot;+cicilan" style="shape=parallelogram;perimeter=parallelogramPerimeter;whiteSpace=wrap;html=1;fixedSize=1;" vertex="1" parent="WIyWlLk6GJQsqaUBKTNV-1">
          <mxGeometry x="230" y="1290" width="260" height="120" as="geometry" />
        </mxCell>
        <mxCell id="CfoaBqupTmaHTWKBpBK3-103" value="" style="edgeStyle=orthogonalEdgeStyle;rounded=0;orthogonalLoop=1;jettySize=auto;html=1;" edge="1" parent="WIyWlLk6GJQsqaUBKTNV-1" source="CfoaBqupTmaHTWKBpBK3-98" target="CfoaBqupTmaHTWKBpBK3-102">
          <mxGeometry relative="1" as="geometry" />
        </mxCell>
        <mxCell id="CfoaBqupTmaHTWKBpBK3-98" value="Mengulang lagi?" style="rhombus;whiteSpace=wrap;html=1;" vertex="1" parent="WIyWlLk6GJQsqaUBKTNV-1">
          <mxGeometry x="320" y="1470" width="80" height="80" as="geometry" />
        </mxCell>
        <mxCell id="CfoaBqupTmaHTWKBpBK3-106" value="" style="edgeStyle=orthogonalEdgeStyle;rounded=0;orthogonalLoop=1;jettySize=auto;html=1;" edge="1" parent="WIyWlLk6GJQsqaUBKTNV-1" source="CfoaBqupTmaHTWKBpBK3-102" target="CfoaBqupTmaHTWKBpBK3-105">
          <mxGeometry relative="1" as="geometry" />
        </mxCell>
        <mxCell id="CfoaBqupTmaHTWKBpBK3-102" value="Kembali ke login?" style="rhombus;whiteSpace=wrap;html=1;" vertex="1" parent="WIyWlLk6GJQsqaUBKTNV-1">
          <mxGeometry x="480" y="1470" width="80" height="80" as="geometry" />
        </mxCell>
        <mxCell id="CfoaBqupTmaHTWKBpBK3-105" value="End" style="strokeWidth=2;html=1;shape=mxgraph.flowchart.start_1;whiteSpace=wrap;" vertex="1" parent="WIyWlLk6GJQsqaUBKTNV-1">
          <mxGeometry x="470" y="1620" width="100" height="60" as="geometry" />
        </mxCell>
        <mxCell id="CfoaBqupTmaHTWKBpBK3-107" value="No" style="text;html=1;align=center;verticalAlign=middle;whiteSpace=wrap;rounded=0;" vertex="1" parent="WIyWlLk6GJQsqaUBKTNV-1">
          <mxGeometry x="400" y="1480" width="60" height="30" as="geometry" />
        </mxCell>
        <mxCell id="CfoaBqupTmaHTWKBpBK3-108" value="" style="endArrow=classic;html=1;rounded=0;exitX=0;exitY=0.5;exitDx=0;exitDy=0;entryX=0;entryY=0.5;entryDx=0;entryDy=0;" edge="1" parent="WIyWlLk6GJQsqaUBKTNV-1" source="CfoaBqupTmaHTWKBpBK3-98" target="CfoaBqupTmaHTWKBpBK3-30">
          <mxGeometry width="50" height="50" relative="1" as="geometry">
            <mxPoint x="50" y="1410" as="sourcePoint" />
            <mxPoint x="-120" y="610" as="targetPoint" />
            <Array as="points">
              <mxPoint x="-120" y="1510" />
              <mxPoint x="-120" y="615" />
            </Array>
          </mxGeometry>
        </mxCell>
        <mxCell id="CfoaBqupTmaHTWKBpBK3-110" value="" style="endArrow=classic;html=1;rounded=0;exitX=1;exitY=0.5;exitDx=0;exitDy=0;entryX=0;entryY=0.5;entryDx=0;entryDy=0;" edge="1" parent="WIyWlLk6GJQsqaUBKTNV-1" source="CfoaBqupTmaHTWKBpBK3-102" target="CfoaBqupTmaHTWKBpBK3-2">
          <mxGeometry width="50" height="50" relative="1" as="geometry">
            <mxPoint x="440" y="1400" as="sourcePoint" />
            <mxPoint x="620" y="240" as="targetPoint" />
            <Array as="points">
              <mxPoint x="680" y="1510" />
              <mxPoint x="680" y="1760" />
              <mxPoint x="-200" y="1760" />
              <mxPoint x="-200" y="180" />
            </Array>
          </mxGeometry>
        </mxCell>
      </root>
    </mxGraphModel>
  </diagram>
</mxfile>
